<svg version="1.1" id="Layer_1" xmlns="http://www.w3.org/2000/svg" xmlns:xlink="http://www.w3.org/1999/xlink" x="0px" y="0px"
	 width="100%" viewBox="0 0 1920 1080" enable-background="new 0 0 1920 1080" xml:space="preserve">
<defs>
    <linearGradient id="grad1" x1="0%" y1="0%" x2="0%" y2="100%">
      <stop offset="50%" style="stop-color:#FFFFFF;stop-opacity:1" />
      <stop offset="50%" style="stop-color:#6414FF;stop-opacity:1" />
    </linearGradient>
  </defs>
<path fill="#000000" opacity="1.000000" stroke="none" 
            	d="
            M1465.925171,727.920166 
            	C1456.579956,732.140198 1447.328369,736.584839 1437.869019,740.531494 
            	C1420.467407,747.791870 1403.875000,756.513977 1388.200317,766.985596 
            	C1376.409790,774.862366 1364.808716,783.039917 1352.799683,790.567383 
            	C1341.371582,797.730713 1329.556885,804.282349 1317.848755,810.992432 
            	C1310.201050,815.375427 1302.440430,819.561279 1294.394043,824.021973 
            	C1301.256104,829.001465 1305.008179,823.066528 1309.324341,820.977844 
            	C1321.449585,815.109863 1333.261475,808.594788 1345.219971,802.379150 
            	C1345.878540,802.036804 1346.745605,802.095642 1347.905884,801.902832 
            	C1348.140991,806.489136 1344.989258,808.157532 1342.237061,810.349792 
            	C1332.574951,818.045898 1298.635498,836.376404 1288.485962,839.053162 
            	C1288.196899,837.927246 1287.907227,836.799316 1287.511597,835.258423 
            	C1257.191650,851.708435 1224.059937,860.000427 1191.915527,870.962708 
            	C1191.395508,871.140076 1190.698853,870.799561 1189.186157,870.556152 
            	C1190.750488,869.403992 1191.614136,868.591980 1192.623535,868.052368 
            	C1200.273438,863.962463 1208.209473,860.333130 1215.519287,855.711060 
            	C1219.531372,853.174133 1222.639282,849.115479 1225.904297,845.515747 
            	C1229.074097,842.021057 1231.623047,837.924133 1235.000122,834.668030 
            	C1238.207153,831.575867 1242.133545,829.229858 1245.422607,825.684814 
            	C1238.586182,827.973450 1231.527954,829.757751 1224.955444,832.646667 
            	C1206.311768,840.841064 1187.992676,849.778503 1169.301147,857.857910 
            	C1155.794189,863.696350 1141.898560,868.636353 1128.171753,873.965515 
            	C1123.551025,875.759521 1118.937866,877.577881 1114.275391,879.257629 
            	C1112.788452,879.793335 1111.153320,879.917847 1109.586060,880.230591 
            	C1109.406860,879.807434 1109.227783,879.384277 1109.048584,878.961121 
            	C1115.242676,875.972290 1121.394775,872.892517 1127.640259,870.015381 
            	C1137.814575,865.328247 1148.049927,860.773438 1158.757690,855.677307 
            	C1159.797241,855.028748 1160.338501,854.865784 1160.879761,854.702820 
            	C1160.776001,854.410583 1160.672241,854.118286 1160.568481,853.825989 
            	C1159.687378,854.190735 1158.806396,854.555420 1157.925293,854.920105 
            	C1138.284424,862.613098 1118.653198,870.331177 1098.994873,877.979797 
            	C1094.590454,879.693542 1090.091553,881.164429 1085.636108,882.747070 
            	C1085.278320,881.985474 1084.920532,881.223938 1084.562866,880.462341 
            	C1087.845093,878.714783 1091.038452,876.768494 1094.425049,875.254089 
            	C1109.177734,868.656799 1124.098267,862.424866 1138.743774,855.600708 
            	C1153.584595,848.685547 1168.218994,841.320068 1182.848999,833.963501 
            	C1188.131836,831.307129 1193.140015,828.104309 1198.774414,824.664062 
            	C1200.819946,823.377380 1202.364624,822.577393 1203.909180,821.777344 
            	C1203.721924,821.433716 1203.534546,821.090088 1203.347168,820.746460 
            	C1201.539795,821.804321 1199.732544,822.862244 1197.925171,823.920166 
            	C1185.490356,828.959106 1173.071533,834.038025 1160.610107,839.010437 
            	C1157.280518,840.339050 1153.821045,841.342651 1150.421265,842.495483 
            	C1150.191162,842.008484 1149.961060,841.521484 1149.730957,841.034485 
            	C1154.682739,837.399109 1159.656738,833.793091 1164.567139,830.102539 
            	C1165.504272,829.398254 1166.499756,828.488770 1166.931885,827.450684 
            	C1168.055054,824.752197 1168.880005,821.929565 1169.902344,818.926025 
            	C1166.592041,820.321045 1162.598755,821.650269 1158.940918,823.606506 
            	C1143.380737,831.928467 1127.973389,840.537354 1112.380005,848.795532 
            	C1109.028320,850.570557 1105.135132,851.323242 1101.491455,852.546875 
            	C1101.147705,851.811890 1100.804077,851.076904 1100.460327,850.341858 
            	C1109.732544,844.943909 1119.004639,839.545959 1128.776123,833.662720 
            	C1130.820068,832.377441 1132.364624,831.577454 1133.909302,830.777405 
            	C1133.721924,830.433777 1133.534546,830.090149 1133.347290,829.746521 
            	C1131.539917,830.804443 1129.732544,831.862366 1127.925171,832.920166 
            	C1116.773926,837.334045 1105.669434,841.871887 1094.454224,846.116638 
            	C1087.418091,848.779663 1080.222168,851.022827 1073.080688,853.402466 
            	C1071.919312,853.789490 1070.667480,853.905518 1069.269897,853.740540 
            	C1083.567871,839.655701 1102.032104,831.585571 1117.505127,818.892761 
            	C1111.439453,820.693420 1105.373901,822.494080 1099.308228,824.294739 
            	C1099.110962,823.856628 1098.913696,823.418518 1098.716309,822.980408 
            	C1110.398682,815.231812 1121.962891,807.296997 1133.796631,799.787048 
            	C1145.595459,792.299377 1159.180786,787.384521 1168.271973,776.087341 
            	C1168.018555,775.630371 1167.765015,775.173401 1167.511475,774.716492 
            	C1154.613159,781.144409 1141.714844,787.572327 1128.240479,793.865601 
            	C1127.517944,793.627441 1127.371216,793.523926 1127.224487,793.420410 
            	C1133.368652,789.290527 1139.412842,785.001099 1145.681030,781.068848 
            	C1154.662964,775.434204 1163.818359,770.076355 1172.862183,764.539246 
            	C1173.458252,764.174194 1173.737671,763.291687 1173.534302,761.647949 
            	C1164.646484,766.300415 1155.758545,770.952881 1146.870728,775.605286 
            	C1146.469116,774.980957 1146.067627,774.356628 1145.666138,773.732300 
            	C1163.908936,757.225586 1184.600098,744.046753 1205.607910,731.020630 
            	C1203.840698,731.020630 1202.073486,731.020630 1200.306152,731.020630 
            	C1200.038452,730.646484 1199.770630,730.272400 1199.502930,729.898254 
            	C1202.907227,726.862244 1205.996216,723.342773 1209.773804,720.879211 
            	C1222.033325,712.883850 1234.246216,704.736328 1247.030762,697.645691 
            	C1265.575195,687.360413 1285.144775,678.846680 1303.283813,667.927246 
            	C1324.797485,654.976501 1345.217407,640.214722 1366.186768,626.351990 
            	C1379.622070,617.469971 1392.978760,608.438354 1406.758545,600.116394 
            	C1423.951538,589.733154 1441.576904,580.068359 1458.940430,569.964294 
            	C1463.528198,567.294617 1467.841187,564.152344 1472.276978,561.222229 
            	C1475.426636,559.141663 1478.041870,557.167419 1478.456055,552.580261 
            	C1478.705933,549.813171 1481.648071,547.050598 1483.852783,544.736023 
            	C1502.418823,525.245361 1524.736450,510.576385 1547.106567,496.021545 
            	C1566.270630,483.552795 1585.692139,471.478607 1604.808960,458.939178 
            	C1611.783813,454.364166 1618.208740,448.950989 1624.884644,443.920166 
            	C1624.761230,443.501343 1624.637939,443.082520 1624.514648,442.663696 
            	C1615.041992,443.109131 1605.566040,443.494202 1596.097412,444.013092 
            	C1578.671997,444.968048 1561.185669,445.373505 1543.846069,447.174774 
            	C1525.612305,449.068878 1507.545898,452.522797 1489.355835,454.910767 
            	C1480.585571,456.062195 1471.708496,456.515015 1462.863403,456.952850 
            	C1452.120728,457.484711 1441.328125,457.251770 1430.615967,458.096893 
            	C1414.170166,459.394379 1397.776245,461.345551 1381.356201,462.977600 
            	C1378.571167,463.254425 1375.745361,463.616272 1372.973145,463.427612 
            	C1366.528687,462.989136 1363.200073,469.139862 1357.411987,470.324646 
            	C1346.560303,472.545868 1335.924927,475.870605 1325.041016,477.875275 
            	C1313.063721,480.081238 1300.926025,481.468811 1288.823364,482.923157 
            	C1280.856201,483.880554 1272.824707,484.296173 1264.826660,485.006348 
            	C1250.151001,486.309570 1235.479126,487.652313 1220.805420,488.976440 
            	C1213.305054,489.653259 1205.726807,489.861389 1198.319336,491.094879 
            	C1182.070068,493.800446 1165.826416,496.655060 1149.738037,500.169312 
            	C1139.432251,502.420502 1129.537842,506.585571 1119.217407,508.730560 
            	C1109.991821,510.648010 1100.424438,510.884308 1091.027466,512.024719 
            	C1081.502686,513.180603 1071.979248,514.385681 1062.496704,515.840393 
            	C1050.013306,517.755493 1037.531250,519.725891 1025.119995,522.052795 
            	C1008.506104,525.167664 991.340637,526.321350 975.675964,533.139526 
            	C961.299133,539.397095 946.116333,540.844055 930.953430,543.061462 
            	C912.188110,545.805664 893.490417,549.011292 874.756775,551.974365 
            	C857.622131,554.684509 840.399719,556.919067 823.359131,560.123962 
            	C803.399109,563.877930 783.596130,568.465515 763.720398,572.669434 
            	C754.730103,574.570984 745.728638,576.419495 735.719910,578.502808 
            	C743.109741,580.686584 749.767212,580.904297 756.207275,579.202209 
            	C771.717163,575.103149 787.087280,570.477356 802.556763,566.220337 
            	C804.430847,565.704651 806.569519,566.150208 808.585571,566.150208 
            	C808.715759,566.880371 808.846008,567.610596 808.976196,568.340759 
            	C800.743774,570.893311 792.592834,573.761169 784.257202,575.913818 
            	C775.063232,578.288147 765.595642,579.626892 756.444946,582.137207 
            	C749.848083,583.946838 743.748901,587.764648 737.107056,589.160706 
            	C730.731689,590.500671 723.911133,589.549133 717.344360,590.195251 
            	C708.812561,591.034790 700.337830,592.455078 691.839722,593.633972 
            	C690.717957,593.789612 689.603271,593.995789 689.694336,594.857971 
            	C688.972656,596.254883 688.613037,598.329712 687.471069,598.939636 
            	C679.584717,603.151184 671.691345,606.244324 662.091309,604.375793 
            	C657.236328,603.430725 651.591675,605.648682 646.479309,607.067993 
            	C616.947632,615.267151 587.294067,623.093262 558.032349,632.175415 
            	C538.487061,638.241882 519.781372,647.009094 500.243317,653.104004 
            	C468.396667,663.038635 436.205994,671.879578 404.105774,680.989197 
            	C377.082794,688.657959 349.899414,695.769836 322.938599,703.647034 
            	C295.388611,711.696350 268.030457,720.401489 240.563522,728.737854 
            	C238.306580,729.422852 235.859329,729.480957 233.500504,729.830322 
            	C233.375336,729.440125 233.250153,729.049988 233.124985,728.659790 
            	C234.186234,727.480652 235.247482,726.301514 236.784973,724.654968 
            	C238.093475,723.686584 238.925705,723.185547 239.757950,722.684448 
            	C239.588379,722.379639 239.418808,722.074768 239.249252,721.769958 
            	C238.141251,722.486633 237.033249,723.203308 235.925262,723.920044 
            	C225.312241,728.426270 214.751556,733.061584 204.068405,737.394897 
            	C196.500336,740.464722 188.783859,743.174500 181.087616,745.915894 
            	C179.987823,746.307617 178.628311,745.970154 176.137131,745.970154 
            	C180.109680,743.437988 183.032944,741.574646 186.464310,739.387451 
            	C162.621201,745.422729 139.452377,751.287292 116.283569,757.151855 
            	C116.039795,756.635864 115.796021,756.119873 115.552246,755.603882 
            	C120.587532,752.891235 125.622810,750.178589 130.658096,747.465942 
            	C130.562454,747.086182 130.466812,746.706360 130.371170,746.326538 
            	C117.781296,749.244080 104.930046,751.344666 92.662552,755.269775 
            	C74.070274,761.218628 55.933964,768.579102 37.495892,775.031006 
            	C31.649191,777.076904 25.457642,778.137207 19.423895,779.648499 
            	C19.135900,779.129211 18.847906,778.609863 18.559912,778.090576 
            	C19.466438,777.044739 20.171492,775.618286 21.312044,775.014587 
            	C28.979156,770.956238 36.737389,767.069885 44.469933,763.135437 
            	C45.565456,762.578064 46.681778,762.061584 47.636902,761.091492 
            	C40.883667,762.575317 34.130436,764.059082 27.377201,765.542908 
            	C27.157621,764.857971 26.938040,764.172974 26.718458,763.488037 
            	C51.202682,749.750488 77.776283,740.313477 103.024696,728.072083 
            	C97.863213,719.106140 96.530602,721.461121 86.824875,723.784668 
            	C75.776978,726.429504 65.013039,730.247253 54.084435,733.412781 
            	C51.302479,734.218628 48.368259,734.844055 45.496635,734.875244 
            	C43.542965,734.896423 40.235214,734.199341 39.834877,733.033142 
            	C37.361572,725.828735 32.216805,729.344360 27.895340,729.569946 
            	C26.662830,729.634216 25.439116,729.867004 24.211369,730.022522 
            	C24.011292,729.519409 23.811214,729.016235 23.611137,728.513123 
            	C28.765934,726.014771 33.940861,723.556946 39.071671,721.010254 
            	C53.303574,713.946106 67.839981,707.418213 81.665863,699.630615 
            	C105.182129,686.384949 128.359253,672.562073 153.620834,662.741028 
            	C159.842834,660.322144 165.979507,657.683716 172.155396,655.146240 
            	C172.878784,656.077881 173.602188,657.009521 174.325592,657.941162 
            	C170.937119,660.047241 167.548660,662.153259 164.160187,664.259338 
            	C164.564056,664.828918 164.967911,665.398499 165.371780,665.968140 
            	C173.073639,662.938416 180.800186,659.969788 188.472626,656.867310 
            	C209.709579,648.279846 230.817368,639.360107 252.186951,631.118042 
            	C265.171539,626.109924 278.541656,622.099243 291.754578,617.688354 
            	C292.965302,617.284119 294.449097,616.737061 295.541351,617.085693 
            	C307.968658,621.051941 319.180573,615.644348 330.699158,612.678162 
            	C332.384521,612.244141 333.967163,611.411133 336.110504,610.558655 
            	C334.811584,610.150513 333.999481,609.895386 332.029755,609.276489 
            	C334.657074,607.095032 336.517120,604.564880 338.973633,603.667664 
            	C357.862488,596.768250 375.906830,588.302063 393.336914,578.156006 
            	C412.372803,567.075256 433.999451,562.629761 455.076874,557.024658 
            	C463.624481,554.751587 472.229645,552.684448 480.853516,550.720764 
            	C482.025787,550.453735 483.460083,551.337341 484.773041,551.688110 
            	C484.677582,552.088806 484.582123,552.489502 484.486664,552.890198 
            	C485.843811,552.571838 487.200958,552.253479 488.558105,551.935120 
            	C488.688660,552.214233 488.819244,552.493347 488.949799,552.772461 
            	C486.822693,553.965820 484.695587,555.159119 482.568512,556.352478 
            	C482.668427,556.755432 482.768341,557.158386 482.868286,557.561279 
            	C522.634033,546.605591 562.399841,535.649902 602.165588,524.694153 
            	C602.288757,525.054077 602.411987,525.414062 602.535156,525.773987 
            	C588.127686,531.224121 573.720215,536.674255 559.312744,542.124390 
            	C559.402527,542.421692 559.492371,542.718994 559.582153,543.016296 
            	C565.549805,541.292053 571.512756,539.551453 577.485962,537.846436 
            	C601.863892,530.888184 626.239380,523.921265 650.626953,516.996826 
            	C664.522461,513.051453 678.349243,508.816101 692.366760,505.359131 
            	C716.896729,499.309479 741.577759,493.875092 766.142456,487.962677 
            	C786.141479,483.149170 806.069580,478.039490 826.009216,472.982758 
            	C828.115967,472.448486 830.088684,471.385773 832.190308,469.396057 
            	C828.803284,468.450775 825.416260,467.505493 820.675964,466.182526 
            	C822.750854,464.740570 823.888611,463.386017 825.254272,463.092743 
            	C833.770691,461.263763 842.328796,459.622498 850.890991,458.014526 
            	C861.847778,455.956848 872.997986,454.654297 883.739990,451.802643 
            	C895.277466,448.739746 906.438416,444.258331 917.540588,439.426422 
            	C914.699829,438.946381 911.859070,438.466370 909.018311,437.986328 
            	C908.978333,437.519318 908.938354,437.052277 908.898438,436.585236 
            	C917.766113,430.329926 927.967773,429.530762 938.505676,430.106842 
            	C938.750488,430.546143 938.995239,430.985443 939.240051,431.424774 
            	C937.771851,432.292664 936.347534,433.248840 934.824158,434.005463 
            	C933.040771,434.891113 931.171021,435.602997 929.338745,436.390259 
            	C929.427979,436.834320 929.517273,437.278381 929.606506,437.722443 
            	C939.940430,436.529510 950.279663,435.380219 960.606567,434.129669 
            	C968.683655,433.151581 976.765259,432.179016 984.808838,430.965485 
            	C993.931946,429.589081 1003.021912,427.987000 1012.113647,426.410614 
            	C1024.227173,424.310303 1036.330078,422.149933 1048.434448,419.996796 
            	C1058.146973,418.269073 1067.862671,416.558136 1077.562256,414.759491 
            	C1089.475952,412.550262 1101.364502,410.204132 1113.281494,408.013550 
            	C1129.821045,404.973328 1146.372559,401.998260 1162.932739,399.072632 
            	C1164.566528,398.783997 1166.295410,399.033997 1167.954956,398.393799 
            	C1161.999512,394.236542 1155.852051,396.759827 1149.850830,397.637817 
            	C1138.796021,399.255157 1127.831421,401.541565 1116.750732,402.917664 
            	C1100.707764,404.910004 1084.594971,406.340637 1068.511963,408.011322 
            	C1058.926147,409.007111 1049.310669,409.781860 1039.762817,411.060852 
            	C1029.657104,412.414490 1019.624634,414.307892 1009.537659,415.814728 
            	C1007.816040,416.071899 1005.981445,415.572479 1004.148560,414.579010 
            	C1035.828003,399.895691 1070.507080,400.572998 1103.510620,393.020966 
            	C1103.857910,393.735992 1104.205200,394.450989 1104.552490,395.166016 
            	C1102.888062,396.688751 1101.223755,398.211487 1099.082520,400.170441 
            	C1128.518677,397.014313 1156.021362,387.698608 1184.000000,380.438049 
            	C1183.952759,379.895325 1183.905518,379.352600 1183.858276,378.809845 
            	C1171.631348,379.849854 1159.404419,380.889832 1147.177490,381.929810 
            	C1146.990356,381.428009 1146.803101,380.926178 1146.615967,380.424377 
            	C1148.899414,379.285858 1151.079834,377.516510 1153.484985,377.124146 
            	C1161.500610,375.816650 1169.570923,374.593689 1177.667236,374.081207 
            	C1197.407837,372.831665 1217.167725,371.802246 1236.934692,371.096893 
            	C1244.662476,370.821106 1252.444824,372.109344 1260.174683,371.851562 
            	C1268.482056,371.574524 1277.016968,371.328247 1284.989868,369.273315 
            	C1300.164062,365.362335 1315.008179,360.171204 1329.992310,355.520752 
            	C1331.165161,355.156738 1332.360107,354.863892 1334.604980,354.246155 
            	C1321.378540,353.272705 1308.720215,356.071075 1296.326538,349.062439 
            	C1318.120605,347.384949 1338.696533,343.435638 1360.396973,346.024628 
            	C1359.186646,347.256409 1357.976318,348.488190 1356.398315,350.094177 
            	C1363.008179,349.239044 1369.438599,348.433441 1375.860840,347.568695 
            	C1381.981689,346.744507 1388.071655,345.612549 1394.214844,345.046509 
            	C1412.207031,343.388550 1430.238281,342.292877 1447.940918,338.149658 
            	C1455.291382,336.429291 1462.953735,335.155060 1470.461060,335.219788 
            	C1479.546265,335.298126 1488.619385,336.992645 1497.690796,338.046783 
            	C1498.458618,338.136017 1499.604736,338.480225 1499.847412,339.028198 
            	C1501.906006,343.678070 1506.001953,342.026031 1509.288208,341.916595 
            	C1521.430054,341.512177 1533.560913,340.771759 1545.857910,338.972900 
            	C1544.732056,338.648743 1543.621826,338.117310 1542.478027,338.031372 
            	C1524.143921,336.653748 1505.810913,335.253204 1487.465820,334.035370 
            	C1479.227661,333.488495 1470.963989,333.314728 1462.710693,333.004547 
            	C1453.292236,332.650604 1443.864868,331.933533 1434.455078,332.108185 
            	C1424.275513,332.297180 1414.079834,334.183594 1403.947998,333.805664 
            	C1387.745850,333.201355 1371.593262,331.305908 1355.414429,330.021881 
            	C1346.084351,329.281372 1336.724121,328.869476 1327.413330,327.948486 
            	C1316.222534,326.841583 1305.076660,325.289062 1293.898193,324.048401 
            	C1286.744263,323.254395 1279.557373,322.759766 1272.401489,321.980774 
            	C1260.892212,320.727753 1249.402832,319.290894 1237.892578,318.047607 
            	C1230.570312,317.256714 1223.235474,316.526947 1215.888672,316.030457 
            	C1199.639771,314.932343 1183.382324,313.954193 1167.123169,313.017822 
            	C1159.377075,312.571716 1151.609741,312.471222 1143.871094,311.935760 
            	C1140.500732,311.702576 1137.178833,310.769196 1133.834839,310.153809 
            	C1133.819214,309.654724 1133.803467,309.155640 1133.787720,308.656586 
            	C1136.679932,307.245941 1139.572266,305.835297 1143.028076,304.149719 
            	C1120.817993,305.374817 1099.168823,306.568970 1077.519775,307.763123 
            	C1077.420044,307.136200 1077.320435,306.509277 1077.220703,305.882355 
            	C1080.938477,304.835754 1084.656128,303.789154 1088.967041,302.575592 
            	C1080.895264,299.835175 1073.089111,301.589661 1065.460449,300.962036 
            	C1057.672485,300.321320 1049.921753,299.221283 1042.132324,298.607391 
            	C1034.429443,298.000336 1026.698486,297.749359 1018.979919,297.342224 
            	C1018.953186,296.709167 1018.926453,296.076111 1018.899719,295.443085 
            	C1024.211670,294.350464 1029.523682,293.257874 1034.835571,292.165253 
            	C1034.820068,291.644897 1034.804443,291.124542 1034.788940,290.604187 
            	C1024.739990,289.402679 1014.702454,287.342773 1004.639343,287.209351 
            	C990.982666,287.028320 977.302612,288.251678 963.639954,289.006470 
            	C953.630493,289.559418 943.640381,290.578613 933.626404,290.873444 
            	C929.755432,290.987427 925.842468,289.676636 921.042542,288.860962 
            	C926.072510,283.248352 932.321655,283.799866 937.630859,282.258484 
            	C943.118225,280.665314 948.895142,280.069305 954.448730,278.458862 
            	C946.989197,277.897491 939.529724,277.336090 932.070251,276.774719 
            	C932.047363,276.097961 932.024536,275.421234 932.001648,274.744476 
            	C958.591003,266.735291 986.395874,265.005310 1013.616821,260.407104 
            	C1012.140991,249.667984 1008.887817,249.799118 999.097717,249.179886 
            	C987.145508,248.423889 975.108643,249.055923 963.109558,248.952774 
            	C960.710083,248.932144 958.175171,248.673325 955.967407,247.830750 
            	C954.435486,247.246109 952.268005,245.484177 952.254944,244.228760 
            	C952.176392,236.694305 946.816406,237.313354 941.943359,237.000900 
            	C940.681335,236.919983 939.418640,236.850235 938.156189,236.775345 
            	C938.008911,236.247696 937.861572,235.720047 937.714294,235.192398 
            	C941.134644,234.128769 944.499329,232.812897 947.984680,232.043808 
            	C966.074524,228.052063 984.207581,224.256256 1002.301514,220.282547 
            	C1019.126831,216.587448 1035.814453,212.141739 1052.763062,209.168518 
            	C1067.350220,206.609543 1082.219116,205.652573 1096.966919,204.019730 
            	C1097.888306,203.917725 1098.840942,204.098251 1100.310303,205.240204 
            	C1096.769043,207.411194 1093.227661,209.582199 1089.686279,211.753204 
            	C1089.873901,212.255508 1090.061401,212.757828 1090.249023,213.260132 
            	C1097.369507,212.748581 1104.504272,212.381851 1111.606812,211.685669 
            	C1119.062256,210.954956 1126.463501,209.493820 1133.928955,209.078186 
            	C1155.839844,207.858322 1177.766968,206.903885 1199.695679,206.049042 
            	C1207.684204,205.737640 1215.703857,205.799683 1223.690063,206.141266 
            	C1225.686890,206.226669 1227.643799,207.994553 1229.556396,209.097702 
            	C1231.616943,210.286087 1233.477173,212.374130 1235.644653,212.730331 
            	C1245.764893,214.393326 1255.961182,215.593765 1266.130249,216.959564 
            	C1266.277344,216.539795 1266.424316,216.120026 1266.571411,215.700272 
            	C1265.752930,215.005676 1264.934448,214.311096 1264.131226,213.629456 
            	C1266.526123,210.172623 1269.639038,208.858032 1273.852905,208.925980 
            	C1292.050293,209.219376 1309.884277,207.028168 1327.595703,202.392105 
            	C1340.483887,199.018524 1353.893677,199.038895 1367.249390,200.890381 
            	C1375.518799,202.036789 1383.916016,202.232941 1392.239746,203.024643 
            	C1401.657715,203.920410 1411.063110,204.959808 1420.456665,206.081146 
            	C1421.358032,206.188736 1422.208618,207.246613 1422.957275,207.989731 
            	C1424.237061,209.260056 1425.417603,210.630402 1426.504761,211.812119 
            	C1424.328613,212.372009 1421.205444,213.175583 1418.082153,213.979156 
            	C1418.145752,214.362686 1418.209351,214.746231 1418.273071,215.129776 
            	C1433.421753,216.420258 1448.569458,217.722412 1463.719360,218.998047 
            	C1479.723755,220.345612 1495.732544,221.643509 1511.735229,223.010666 
            	C1521.043335,223.805878 1530.343628,224.694534 1539.829712,226.073273 
            	C1538.392090,226.382172 1536.961426,226.920502 1535.515747,226.964096 
            	C1522.431641,227.358658 1509.342651,227.595444 1496.260864,228.050873 
            	C1493.046875,228.162766 1489.854980,228.905502 1485.945068,229.458298 
            	C1492.023926,230.014816 1497.394531,230.740097 1502.785278,230.952698 
            	C1515.031982,231.435699 1527.298096,231.465134 1539.538696,232.048828 
            	C1556.471924,232.856293 1573.396973,233.886810 1590.310059,235.046570 
            	C1601.746704,235.830795 1613.170776,236.867233 1624.575073,238.038315 
            	C1635.761597,239.187027 1646.912964,240.674301 1658.085327,241.965057 
            	C1667.161011,243.013596 1676.278198,243.760315 1685.316772,245.059509 
            	C1696.213379,246.625778 1707.061401,248.549438 1717.903198,250.472778 
            	C1731.590454,252.900909 1745.231934,255.590073 1758.931274,257.944946 
            	C1763.755371,258.774200 1768.691772,258.949524 1773.576904,259.423401 
            	C1773.829346,259.035736 1774.081665,258.648041 1774.333984,258.260345 
            	C1771.324707,254.942352 1768.315552,251.624359 1765.306274,248.306366 
            	C1765.675781,247.622345 1766.045166,246.938324 1766.414673,246.254303 
            	C1771.778564,247.461517 1777.269531,248.273788 1782.482056,249.951279 
            	C1797.126587,254.664032 1811.553467,260.070648 1826.263428,264.556549 
            	C1838.291626,268.224579 1850.143555,271.991089 1860.677002,279.141907 
            	C1877.715820,290.708923 1888.315186,306.602417 1892.963989,326.551239 
            	C1893.662231,329.547760 1893.945068,332.641083 1894.921387,335.658691 
            	C1896.433105,325.142120 1893.418945,314.945435 1891.715576,304.411713 
            	C1899.552124,308.942444 1904.000488,324.195404 1902.747681,349.100342 
            	C1901.915161,365.647491 1895.213745,380.414642 1883.266724,392.205139 
            	C1882.680176,391.981415 1882.093750,391.757690 1881.507202,391.533966 
            	C1884.901733,382.250275 1888.296265,372.966583 1891.690796,363.682892 
            	C1891.467529,363.636536 1891.244263,363.590179 1891.020996,363.543823 
            	C1886.815430,370.906891 1882.609741,378.269958 1878.414429,385.614868 
            	C1879.222290,385.909546 1880.153198,386.249176 1881.546143,386.757324 
            	C1880.779175,387.626343 1880.365479,388.501556 1879.953369,388.500854 
            	C1873.981323,388.490784 1871.418823,393.464508 1867.752197,396.773376 
            	C1860.739746,403.101288 1853.799194,409.508942 1846.646973,416.049805 
            	C1851.248901,416.049805 1856.053711,416.049805 1860.858521,416.049805 
            	C1860.979736,416.527710 1861.100952,417.005615 1861.222168,417.483521 
            	C1859.005737,418.322235 1856.843262,419.369080 1854.562744,419.960815 
            	C1847.624023,421.761230 1839.788208,421.939819 1833.875244,425.421967 
            	C1825.264404,430.492798 1817.996826,437.858429 1810.208130,444.308167 
            	C1800.147583,452.639252 1790.086792,460.971527 1780.122925,469.417633 
            	C1772.371704,475.988037 1764.872437,482.857178 1757.076782,489.373016 
            	C1744.318970,500.036682 1731.440918,510.557770 1718.555298,521.067566 
            	C1710.116333,527.950439 1701.574829,534.707336 1693.349487,542.695557 
            	C1694.844116,542.468384 1696.622925,542.684631 1697.785767,541.939636 
            	C1703.752563,538.116943 1709.666138,534.192566 1715.404907,530.036560 
            	C1734.148560,516.462219 1752.766479,502.714081 1771.513062,489.143646 
            	C1787.743652,477.394379 1804.075439,465.784576 1820.385254,454.144958 
            	C1822.585327,452.574890 1824.918335,451.190979 1827.683594,449.401154 
            	C1828.723877,454.965668 1825.168579,458.195709 1822.502075,460.716858 
            	C1811.775024,470.859283 1800.615112,480.557983 1789.377563,490.142273 
            	C1780.703735,497.540222 1771.722168,504.581665 1762.780273,511.658875 
            	C1759.661499,514.127197 1756.252075,516.228271 1752.975342,518.497070 
            	C1752.587280,518.232788 1752.199097,517.968567 1751.811035,517.704285 
            	C1752.552246,514.931885 1753.293335,512.159485 1754.172241,508.871918 
            	C1730.199585,525.422363 1711.052368,546.295288 1691.219238,567.353027 
            	C1690.647217,568.138184 1690.515503,568.473511 1690.383911,568.808838 
            	C1690.947510,568.565857 1691.511230,568.322876 1692.074829,568.079834 
            	C1699.906128,563.369873 1707.720459,558.631470 1715.579712,553.968628 
            	C1717.716064,552.701172 1719.987671,551.661621 1723.252808,549.970825 
            	C1722.319580,556.212463 1718.911743,559.429932 1715.321777,561.818909 
            	C1706.230957,567.868591 1696.793457,573.402405 1687.435913,579.045044 
            	C1673.396973,587.510498 1659.459717,596.164001 1645.166382,604.179382 
            	C1639.214111,607.517334 1632.195923,608.922913 1626.133667,612.104919 
            	C1619.058838,615.818542 1611.546387,619.531006 1605.916382,624.989685 
            	C1594.558228,636.002563 1584.345093,648.196411 1573.219238,660.353027 
            	C1572.647217,661.138123 1572.515503,661.473450 1572.383789,661.808777 
            	C1572.947510,661.565735 1573.511108,661.322754 1574.074829,661.079834 
            	C1581.250732,658.003418 1588.319336,654.630981 1595.647461,651.974304 
            	C1599.358887,650.628784 1603.539062,650.576050 1607.755981,650.872681 
            	C1590.375488,662.157593 1574.591919,675.681580 1553.724976,683.041199 
            	C1554.209106,679.955505 1554.488647,678.173462 1554.838379,675.944275 
            	C1539.591064,686.037415 1524.505127,695.817444 1509.639648,705.921936 
            	C1494.756836,716.038330 1480.094482,726.478882 1465.335571,736.777283 
            	C1464.794067,736.366882 1464.252563,735.956482 1463.711182,735.546082 
            	C1464.572754,733.415161 1465.434326,731.284241 1466.758545,728.675232 
            	C1467.352783,727.861816 1467.484497,727.526489 1467.616089,727.191162 
            	C1467.052368,727.434082 1466.488770,727.677124 1465.925171,727.920166 
            M1743.199097,485.998413 
            	C1730.836182,492.637848 1721.935425,503.039764 1713.018677,513.607788 
            	C1715.615234,513.362854 1717.689575,512.390259 1719.409912,510.984344 
            	C1722.570679,508.401367 1725.619141,505.661865 1728.541382,502.810394 
            	C1734.017944,497.466858 1739.371094,491.996918 1745.221191,486.197083 
            	C1745.352905,485.861786 1745.484619,485.526459 1745.616211,485.191040 
            	C1745.052490,485.434052 1744.488770,485.677063 1743.199097,485.998413 
            M1279.840698,770.005554 
            	C1280.608154,769.800964 1281.447510,769.732849 1282.132446,769.371765 
            	C1297.589722,761.223755 1313.069702,753.117188 1328.444580,744.816162 
            	C1332.146729,742.817505 1335.489990,740.154114 1338.998291,737.796448 
            	C1338.747681,737.389404 1338.497070,736.982300 1338.246582,736.575256 
            	C1316.924316,745.029968 1297.822388,757.646790 1277.744141,769.808289 
            	C1277.202881,769.971252 1276.661499,770.134216 1276.120239,770.297180 
            	C1276.223999,770.589478 1276.327759,770.881714 1276.431519,771.173950 
            	C1277.312622,770.809265 1278.193604,770.444641 1279.840698,770.005554 
            M1508.189087,672.999207 
            	C1493.703125,679.950623 1481.693970,690.139282 1470.770142,701.902039 
            	C1477.000488,699.389282 1482.912598,696.341309 1488.652466,692.997437 
            	C1497.090576,688.081665 1504.110474,681.549194 1510.221069,673.197144 
            	C1510.352661,672.861816 1510.484375,672.526489 1510.616089,672.191162 
            	C1510.052490,672.434204 1509.488770,672.677185 1508.189087,672.999207 
            M1684.165039,543.994446 
            	C1677.963867,545.738403 1672.758057,551.824524 1665.313965,548.308716 
            	C1664.945557,548.134583 1664.108521,548.700989 1663.613770,549.083252 
            	C1653.884766,556.601807 1644.174194,564.144104 1634.459717,571.681580 
            	C1656.684204,571.498230 1670.444580,556.677368 1686.260742,544.188049 
            	C1687.093140,543.686829 1687.925659,543.185669 1688.758179,542.684448 
            	C1688.578735,542.386047 1688.399292,542.087585 1688.219971,541.789124 
            	C1687.121704,542.499512 1686.023438,543.209839 1684.165039,543.994446 
            M1373.828491,768.005554 
            	C1382.040771,763.679321 1390.711670,760.032104 1398.357544,754.867371 
            	C1409.746582,747.174194 1420.459473,738.471741 1431.368652,730.079956 
            	C1438.921265,724.270264 1446.319458,718.260193 1453.921387,712.232971 
            	C1453.239136,712.139465 1452.704834,711.906921 1452.271973,712.030090 
            	C1438.261597,716.014893 1426.183716,723.582764 1414.963013,732.580994 
            	C1400.624756,744.079346 1386.462524,755.797119 1371.778931,767.802856 
            	C1371.647217,768.138184 1371.515503,768.473511 1371.383911,768.808777 
            	C1371.947510,768.565796 1372.511230,768.322815 1373.828491,768.005554 
            M1518.487549,346.999817 
            	C1499.542603,351.010284 1480.597778,355.020782 1463.042969,358.736969 
            	C1474.477661,361.564117 1487.465698,360.219330 1500.098877,357.778259 
            	C1522.314331,353.485596 1544.304199,348.025635 1562.075806,344.025269 
            	C1556.673096,344.025269 1546.860718,343.677979 1537.088623,344.154541 
            	C1531.153809,344.444000 1525.280884,346.006409 1518.487549,346.999817 
            M1226.375000,395.036530 
            	C1224.649536,394.691040 1222.914307,394.010345 1221.200317,394.060059 
            	C1214.962891,394.241028 1208.697876,394.362946 1202.507080,395.067596 
            	C1192.126953,396.249054 1181.795654,397.860474 1170.338257,399.443726 
            	C1177.707642,400.023895 1183.920044,400.387878 1190.101318,401.046112 
            	C1193.868774,401.447327 1196.537231,405.226349 1201.068237,404.102478 
            	C1209.184326,402.089386 1217.458618,400.715363 1225.666016,399.069885 
            	C1228.691406,398.463318 1231.714355,397.844543 1234.738403,397.231293 
            	C1234.637695,396.889252 1234.536987,396.547211 1234.436279,396.205200 
            	C1231.979248,396.000519 1229.522095,395.795837 1226.375000,395.036530 
            M1237.991333,806.511597 
            	C1255.403687,796.443176 1272.815918,786.374756 1290.228271,776.306335 
            	C1289.964111,775.852600 1289.700073,775.398865 1289.436035,774.945129 
            	C1264.501953,783.491577 1242.722656,797.794556 1221.499146,813.288757 
            	C1226.786865,811.181458 1232.074463,809.074097 1237.991333,806.511597 
            M1645.501587,367.004364 
            	C1647.408936,367.336243 1649.338501,368.049835 1651.219971,367.939697 
            	C1666.463379,367.047791 1681.709839,366.152832 1696.929810,364.939667 
            	C1704.816650,364.311005 1712.651855,363.035431 1720.510376,362.052124 
            	C1708.356689,359.203247 1656.090088,362.783569 1640.644165,367.000336 
            	C1642.666748,367.000336 1643.644653,367.000336 1645.501587,367.004364 
            M1880.000000,331.779694 
            	C1880.960571,350.703278 1875.518555,367.781036 1865.294312,383.891663 
            	C1867.177612,383.509674 1869.134521,382.934509 1869.972778,381.636780 
            	C1880.548584,365.262329 1886.695312,347.651062 1882.861084,327.924774 
            	C1881.596313,321.418671 1878.725098,315.224854 1876.588379,308.888275 
            	C1876.120972,309.053680 1875.653442,309.219116 1875.185913,309.384552 
            	C1876.790039,316.537140 1878.394043,323.689728 1880.000000,331.779694 
            M1187.755127,299.958527 
            	C1186.171509,299.639038 1184.553589,298.928314 1183.010010,299.064148 
            	C1173.777588,299.876617 1164.562256,300.884094 1154.683350,301.893372 
            	C1160.981445,305.922760 1200.126709,307.705322 1215.510742,303.705292 
            	C1206.566772,302.469147 1197.622803,301.233032 1187.755127,299.958527 
            M1577.754395,247.997772 
            	C1579.584473,248.012177 1581.424561,247.908173 1583.243164,248.060623 
            	C1593.309937,248.904556 1603.371460,249.810928 1613.434937,250.695877 
            	C1613.479980,250.236328 1613.525024,249.776764 1613.570190,249.317215 
            	C1593.308228,245.725311 1573.538452,238.936325 1551.013550,240.143860 
            	C1554.136475,241.467743 1555.898560,242.449280 1557.787476,242.972610 
            	C1564.116943,244.726074 1570.491699,246.315872 1577.754395,247.997772 
            M307.256897,698.969788 
            	C308.051971,698.465027 308.847015,697.960205 309.739685,697.393433 
            	C297.783905,696.524597 264.591064,707.691040 254.318756,716.149292 
            	C260.760742,714.574463 266.957672,713.536621 272.820221,711.524536 
            	C284.137421,707.640503 295.265869,703.206421 307.256897,698.969788 
            M1397.921387,368.000000 
            	C1414.997314,368.351227 1431.288940,364.294373 1448.534180,359.159546 
            	C1430.559448,359.735565 1405.935425,360.264221 1394.412476,368.000000 
            	C1395.380249,368.000000 1396.210449,368.000000 1397.921387,368.000000 
            M966.425232,449.954498 
            	C964.650208,450.659149 962.875183,451.363770 961.100159,452.068390 
            	C961.260376,452.557281 961.420593,453.046143 961.580811,453.535034 
            	C966.529236,452.690063 971.501282,451.962982 976.420959,450.975037 
            	C985.893738,449.072693 995.353760,447.096741 1004.773499,444.951538 
            	C1006.134705,444.641541 1007.243896,443.225037 1008.469727,442.320557 
            	C1008.170166,441.803680 1007.870667,441.286835 1007.571106,440.769958 
            	C993.693909,441.804321 980.400208,445.755859 966.425232,449.954498 
            M1617.208984,378.997620 
            	C1618.455933,378.665802 1619.686890,378.134766 1620.952271,378.034088 
            	C1630.088867,377.307098 1639.234009,376.688721 1648.371582,375.972534 
            	C1649.517822,375.882660 1650.635132,375.421936 1651.765747,375.133026 
            	C1651.692261,374.678589 1651.618652,374.224121 1651.545044,373.769684 
            	C1627.765625,374.749756 1604.019165,376.185303 1580.417236,378.999878 
            	C1592.367432,378.999878 1604.317505,378.999878 1617.208984,378.997620 
            M633.696289,531.043884 
            	C648.012085,527.892151 662.327820,524.740356 676.643616,521.588623 
            	C676.503601,520.951172 676.363586,520.313721 676.223572,519.676331 
            	C657.315796,523.018738 638.079224,524.854370 619.895447,531.514954 
            	C619.965637,531.929749 620.035767,532.344543 620.105896,532.759399 
            	C624.387756,532.360901 628.669617,531.962402 633.696289,531.043884 
            M1822.090332,405.367798 
            	C1819.273926,407.869324 1816.472900,410.388489 1813.636230,412.866852 
            	C1811.425049,414.798889 1809.002930,416.523956 1807.006958,418.652618 
            	C1806.059570,419.662994 1805.795410,421.379425 1805.465698,422.831360 
            	C1805.417480,423.043335 1806.791016,423.958344 1807.403809,423.865845 
            	C1808.955444,423.631683 1810.834229,423.437042 1811.902832,422.473480 
            	C1819.074951,416.005890 1826.070068,409.341919 1833.122437,402.741516 
            	C1832.820557,402.220551 1832.518799,401.699615 1832.216919,401.178650 
            	C1829.033936,402.413208 1825.851074,403.647766 1822.090332,405.367798 
            M1557.517578,336.000000 
            	C1560.518921,336.061096 1563.530640,336.303711 1566.518677,336.132446 
            	C1569.526367,335.960052 1572.510254,335.376099 1575.504639,334.972473 
            	C1575.473877,334.604218 1575.443115,334.235931 1575.412354,333.867676 
            	C1558.791260,332.703674 1542.170288,331.539673 1525.549194,330.375671 
            	C1525.497314,330.922516 1525.445435,331.469391 1525.393555,332.016235 
            	C1535.790405,333.344147 1546.187378,334.672089 1557.517578,336.000000 
            M1123.491943,416.000000 
            	C1127.638428,414.805847 1131.784912,413.611694 1135.931396,412.417572 
            	C1135.719482,411.636902 1135.507568,410.856262 1135.295654,410.075623 
            	C1120.967529,413.296722 1106.639404,416.517822 1092.311157,419.738922 
            	C1092.473145,420.512421 1092.635132,421.285889 1092.797119,422.059357 
            	C1102.742188,420.040405 1112.687378,418.021423 1123.491943,416.000000 
            M1304.691162,320.999908 
            	C1312.687012,321.672607 1320.692505,322.249878 1328.674438,323.060455 
            	C1332.372803,323.436066 1336.003784,324.503204 1339.703247,324.835663 
            	C1345.599609,325.365601 1351.527832,325.543579 1357.442505,325.870392 
            	C1357.458862,325.612152 1357.475220,325.353912 1357.491577,325.095642 
            	C1337.196167,322.415375 1316.900757,319.735077 1296.605347,317.054810 
            	C1296.491943,317.627411 1296.378540,318.200043 1296.265137,318.772644 
            	C1298.778931,319.514557 1301.292725,320.256439 1304.691162,320.999908 
            M937.491577,444.000031 
            	C928.701782,446.144104 919.912048,448.288147 911.122253,450.432220 
            	C911.305237,451.177765 911.488159,451.923340 911.671082,452.668884 
            	C927.715759,448.909760 943.760376,445.150665 959.804993,441.391541 
            	C959.645264,440.675354 959.485596,439.959167 959.325928,439.242981 
            	C952.335999,440.827850 945.346130,442.412720 937.491577,444.000031 
            M651.583618,602.002380 
            	C660.971313,599.363159 670.359009,596.723938 679.746765,594.084656 
            	C679.603088,593.575256 679.459473,593.065796 679.315796,592.556396 
            	C659.931335,597.649963 640.546814,602.743530 621.162354,607.837097 
            	C621.310913,608.434509 621.459473,609.031921 621.608093,609.629333 
            	C631.319885,607.097900 641.031616,604.566467 651.583618,602.002380 
            M402.969879,677.543457 
            	C416.210144,673.899170 429.450378,670.254883 442.690613,666.610596 
            	C442.601013,666.267639 442.511414,665.924683 442.421783,665.581726 
            	C426.374725,669.589661 410.327667,673.597656 394.280609,677.605652 
            	C394.390991,678.081177 394.501373,678.556763 394.611755,679.032288 
            	C397.150513,678.676697 399.689240,678.321045 402.969879,677.543457 
            M1852.361816,402.969025 
            	C1854.484131,400.902740 1856.677368,398.903320 1858.707886,396.750397 
            	C1860.542236,394.805756 1862.198608,392.693298 1863.933472,390.654877 
            	C1855.881470,391.771301 1854.485229,399.038208 1850.464966,403.859528 
            	C1850.857544,403.583160 1851.250122,403.306793 1852.361816,402.969025 
            M1474.479004,342.000000 
            	C1475.477051,341.999969 1476.477051,342.039368 1477.472534,341.988800 
            	C1478.450195,341.939117 1479.422974,341.797974 1480.397949,341.696991 
            	C1473.069824,341.961548 1465.433472,336.922791 1457.764893,343.368744 
            	C1463.541504,342.867920 1468.546753,342.433960 1474.479004,342.000000 
            M1831.793213,398.221161 
            	C1837.172607,401.178070 1838.067993,396.515564 1840.260986,393.488617 
            	C1836.181030,393.035889 1834.645142,393.790771 1831.793213,398.221161 
            M1163.087402,490.030426 
            	C1163.047852,490.314209 1162.993286,490.597839 1162.990112,490.882019 
            	C1162.989868,490.913635 1163.288086,490.993744 1163.438354,490.975311 
            	C1171.470459,489.990570 1179.501465,488.997650 1187.532593,488.005585 
            	C1187.482544,487.606750 1187.432495,487.207886 1187.382446,486.809052 
            	C1185.164795,487.094299 1182.944946,487.363647 1180.729980,487.667908 
            	C1175.127563,488.437469 1169.527466,489.222809 1163.087402,490.030426 
            M1629.116089,449.261841 
            	C1628.054321,449.377167 1626.992554,449.492523 1625.930786,449.607849 
            	C1626.029419,450.114624 1626.128052,450.621429 1626.226685,451.128204 
            	C1627.020142,450.726624 1627.813477,450.325043 1629.116089,449.261841 
            M1630.957642,445.655212 
            	C1631.345337,446.086182 1631.733154,446.517151 1632.120850,446.948151 
            	C1632.514648,446.494110 1632.908447,446.040070 1633.302246,445.585999 
            	C1632.745239,445.408234 1632.188354,445.230469 1630.957642,445.655212 
            M1635.218140,444.183655 
            	C1635.673584,443.999725 1636.129150,443.815765 1636.584595,443.631836 
            	C1636.367920,443.309662 1636.151245,442.987488 1635.934448,442.665314 
            	C1635.432983,443.258179 1634.931519,443.851013 1635.218140,444.183655 
            M1469.541504,703.919067 
            	C1469.605347,703.552246 1469.669312,703.185486 1469.733154,702.818604 
            	C1469.356201,702.879761 1468.943604,702.873718 1468.623657,703.042969 
            	C1468.527832,703.093628 1468.690430,703.633179 1469.541504,703.919067 
            M1622.222900,453.306671 
            	C1622.687012,453.469208 1623.148315,453.642944 1623.623169,453.762726 
            	C1623.648315,453.769043 1623.788818,453.317596 1623.875610,453.079193 
            	C1623.530396,452.985870 1623.185181,452.892548 1622.222900,453.306671 
            M1289.777222,834.693176 
            	C1289.313110,834.530701 1288.851685,834.356934 1288.376831,834.237244 
            	C1288.351685,834.230957 1288.211182,834.682434 1288.124390,834.920776 
            	C1288.469604,835.014038 1288.814941,835.107361 1289.777222,834.693176 
            z"/>
            <path fill="#000000" opacity="1.000000" stroke="none" 
            	d="
            M1419.726562,588.722717 
            	C1413.448120,592.692566 1407.498779,596.494263 1401.451050,600.132629 
            	C1395.427002,603.756714 1389.304565,607.216980 1382.966431,610.899414 
            	C1380.801636,606.351868 1383.480713,604.622681 1385.811035,603.059937 
            	C1393.957275,597.596741 1402.130127,592.164978 1410.442627,586.960571 
            	C1416.812500,582.972473 1423.381348,579.297302 1429.932129,575.607910 
            	C1430.958618,575.029846 1432.359863,575.116943 1434.454468,574.740784 
            	C1432.638184,583.368591 1424.785034,584.329041 1419.726562,588.722717 
            z"/>
            <path fill="#000000" opacity="1.000000" stroke="none" 
            	d="
            M1427.267578,462.001099 
            	C1442.223755,460.674164 1456.710693,459.269226 1471.216431,458.095886 
            	C1473.789673,457.887756 1476.441040,458.643433 1479.650513,459.024658 
            	C1474.527466,464.648956 1421.327759,469.915375 1414.741821,464.774475 
            	C1418.762817,463.850342 1422.783691,462.926208 1427.267578,462.001099 
            z"/>
            <path fill="#000000" opacity="1.000000" stroke="none" 
            	d="
            M1105.639893,798.770935 
            	C1096.500610,804.856750 1087.684326,810.766968 1078.815796,816.597839 
            	C1077.656982,817.359741 1076.230225,817.714111 1074.662109,818.367859 
            	C1076.317993,812.147339 1112.566528,785.443237 1120.236694,785.428467 
            	C1114.991821,790.252075 1110.469116,794.411377 1105.639893,798.770935 
            z"/>
            <path fill="#000000" opacity="1.000000" stroke="none" 
            	d="
            M565.348389,631.264038 
            	C575.445618,628.546631 585.193176,626.023987 594.969666,623.618958 
            	C595.909424,623.387817 597.029053,623.887939 598.103638,624.748474 
            	C584.425232,631.303040 570.109070,634.989868 555.421265,637.346191 
            	C555.167786,636.691772 554.914307,636.037354 554.660889,635.382935 
            	C558.109436,634.085754 561.558044,632.788574 565.348389,631.264038 
            z"/>
            <path fill="#000000" opacity="1.000000" stroke="none" 
            	d="
            M958.163879,258.000000 
            	C961.701599,258.000000 964.771973,258.000000 968.210144,258.000000 
            	C964.979736,262.723328 954.257202,264.806519 941.386780,263.711365 
            	C941.674561,260.475250 946.502563,258.784576 958.163879,258.000000 
            z"/>
            <path fill="#000000" opacity="1.000000" stroke="none" 
            	d="
            M51.727238,745.765930 
            	C45.315453,748.874939 39.358501,752.344360 32.028336,751.233398 
            	C39.718788,745.464722 48.450722,742.188660 57.535160,739.731262 
            	C57.845123,740.276917 58.155083,740.822510 58.465046,741.368103 
            	C56.311485,742.745728 54.157921,744.123291 51.727238,745.765930 
            z"/>
            <path fill="#000000" opacity="1.000000" stroke="none" 
            	d="
            M1127.869629,793.905396 
            	C1127.511230,794.322815 1126.947510,794.565857 1126.383911,794.808838 
            	C1126.515503,794.473511 1126.647217,794.138184 1127.001709,793.611633 
            	C1127.371216,793.523926 1127.517944,793.627441 1127.869629,793.905396 
            z"/>
            <path fill="#FFFFFF" opacity="1.000000" stroke="none" 
            	d="
            M1372.224487,767.420410 
            	C1386.462524,755.797119 1400.624756,744.079346 1414.963013,732.580994 
            	C1426.183716,723.582764 1438.261597,716.014893 1452.271973,712.030090 
            	C1452.704834,711.906921 1453.239136,712.139465 1453.921387,712.232971 
            	C1446.319458,718.260193 1438.921265,724.270264 1431.368652,730.079956 
            	C1420.459473,738.471741 1409.746582,747.174194 1398.357544,754.867371 
            	C1390.711670,760.032104 1382.040771,763.679321 1373.246582,767.868286 
            	C1372.517944,767.627441 1372.371216,767.523926 1372.224487,767.420410 
            z"/>
            <path fill="#FFFFFF" opacity="1.000000" stroke="none" 
            	d="
            M1518.933838,346.998413 
            	C1525.280884,346.006409 1531.153809,344.444000 1537.088623,344.154541 
            	C1546.860718,343.677979 1556.673096,344.025269 1562.075806,344.025269 
            	C1544.304199,348.025635 1522.314331,353.485596 1500.098877,357.778259 
            	C1487.465698,360.219330 1474.477661,361.564117 1463.042969,358.736969 
            	C1480.597778,355.020782 1499.542603,351.010284 1518.933838,346.998413 
            z"/>
            <path fill="#FFFFFF" opacity="1.000000" stroke="none" 
            	d="
            M1685.748291,544.613037 
            	C1670.444580,556.677368 1656.684204,571.498230 1634.459717,571.681580 
            	C1644.174194,564.144104 1653.884766,556.601807 1663.613770,549.083252 
            	C1664.108521,548.700989 1664.945557,548.134583 1665.313965,548.308716 
            	C1672.758057,551.824524 1677.963867,545.738403 1684.744507,544.138062 
            	C1685.465454,544.392090 1685.606812,544.502563 1685.748291,544.613037 
            z"/>
            <path fill="#FFFFFF" opacity="1.000000" stroke="none" 
            	d="
            M1226.719971,395.313843 
            	C1229.522095,395.795837 1231.979248,396.000519 1234.436279,396.205200 
            	C1234.536987,396.547211 1234.637695,396.889252 1234.738403,397.231293 
            	C1231.714355,397.844543 1228.691406,398.463318 1225.666016,399.069885 
            	C1217.458618,400.715363 1209.184326,402.089386 1201.068237,404.102478 
            	C1196.537231,405.226349 1193.868774,401.447327 1190.101318,401.046112 
            	C1183.920044,400.387878 1177.707642,400.023895 1170.338257,399.443726 
            	C1181.795654,397.860474 1192.126953,396.249054 1202.507080,395.067596 
            	C1208.697876,394.362946 1214.962891,394.241028 1221.200317,394.060059 
            	C1222.914307,394.010345 1224.649536,394.691040 1226.719971,395.313843 
            z"/>
            <path fill="#FFFFFF" opacity="1.000000" stroke="none" 
            	d="
            M1237.676758,806.739197 
            	C1232.074463,809.074097 1226.786865,811.181458 1221.499146,813.288757 
            	C1242.722656,797.794556 1264.501953,783.491577 1289.436035,774.945129 
            	C1289.700073,775.398865 1289.964111,775.852600 1290.228271,776.306335 
            	C1272.815918,786.374756 1255.403687,796.443176 1237.676758,806.739197 
            z"/>
            <path fill="#FFFFFF" opacity="1.000000" stroke="none" 
            	d="
            M1645.062012,367.002350 
            	C1643.644653,367.000336 1642.666748,367.000336 1640.644165,367.000336 
            	C1656.090088,362.783569 1708.356689,359.203247 1720.510376,362.052124 
            	C1712.651855,363.035431 1704.816650,364.311005 1696.929810,364.939667 
            	C1681.709839,366.152832 1666.463379,367.047791 1651.219971,367.939697 
            	C1649.338501,368.049835 1647.408936,367.336243 1645.062012,367.002350 
            z"/>
            <path fill="#FFFFFF" opacity="1.000000" stroke="none" 
            	d="
            M1879.999023,331.311005 
            	C1878.394043,323.689728 1876.790039,316.537140 1875.185913,309.384552 
            	C1875.653442,309.219116 1876.120972,309.053680 1876.588379,308.888275 
            	C1878.725098,315.224854 1881.596313,321.418671 1882.861084,327.924774 
            	C1886.695312,347.651062 1880.548584,365.262329 1869.972778,381.636780 
            	C1869.134521,382.934509 1867.177612,383.509674 1865.294312,383.891663 
            	C1875.518555,367.781036 1880.960571,350.703278 1879.999023,331.311005 
            z"/>
            <path fill="#FFFFFF" opacity="1.000000" stroke="none" 
            	d="
            M1188.217041,299.977722 
            	C1197.622803,301.233032 1206.566772,302.469147 1215.510742,303.705292 
            	C1200.126709,307.705322 1160.981445,305.922760 1154.683350,301.893372 
            	C1164.562256,300.884094 1173.777588,299.876617 1183.010010,299.064148 
            	C1184.553589,298.928314 1186.171509,299.639038 1188.217041,299.977722 
            z"/>
            <path fill="#FFFFFF" opacity="1.000000" stroke="none" 
            	d="
            M1577.301758,247.983063 
            	C1570.491699,246.315872 1564.116943,244.726074 1557.787476,242.972610 
            	C1555.898560,242.449280 1554.136475,241.467743 1551.013550,240.143860 
            	C1573.538452,238.936325 1593.308228,245.725311 1613.570190,249.317215 
            	C1613.525024,249.776764 1613.479980,250.236328 1613.434937,250.695877 
            	C1603.371460,249.810928 1593.309937,248.904556 1583.243164,248.060623 
            	C1581.424561,247.908173 1579.584473,248.012177 1577.301758,247.983063 
            z"/>
            <path fill="#FFFFFF" opacity="1.000000" stroke="none" 
            	d="
            M1509.775513,673.579590 
            	C1504.110474,681.549194 1497.090576,688.081665 1488.652466,692.997437 
            	C1482.912598,696.341309 1477.000488,699.389282 1470.770142,701.902039 
            	C1481.693970,690.139282 1493.703125,679.950623 1508.762207,673.134155 
            	C1509.482056,673.372559 1509.628784,673.476074 1509.775513,673.579590 
            z"/>
            <path fill="#FFFFFF" opacity="1.000000" stroke="none" 
            	d="
            M306.864746,698.985107 
            	C295.265869,703.206421 284.137421,707.640503 272.820221,711.524536 
            	C266.957672,713.536621 260.760742,714.574463 254.318756,716.149292 
            	C264.591064,707.691040 297.783905,696.524597 309.739685,697.393433 
            	C308.847015,697.960205 308.051971,698.465027 306.864746,698.985107 
            z"/>
            <path fill="#FFFFFF" opacity="1.000000" stroke="none" 
            	d="
            M1278.252441,769.386108 
            	C1297.822388,757.646790 1316.924316,745.029968 1338.246582,736.575256 
            	C1338.497070,736.982300 1338.747681,737.389404 1338.998291,737.796448 
            	C1335.489990,740.154114 1332.146729,742.817505 1328.444580,744.816162 
            	C1313.069702,753.117188 1297.589722,761.223755 1282.132446,769.371765 
            	C1281.447510,769.732849 1280.608154,769.800964 1279.258545,769.861816 
            	C1278.535034,769.607361 1278.393677,769.496765 1278.252441,769.386108 
            z"/>
            <path fill="#FFFFFF" opacity="1.000000" stroke="none" 
            	d="
            M1397.480957,368.000000 
            	C1396.210449,368.000000 1395.380249,368.000000 1394.412476,368.000000 
            	C1405.935425,360.264221 1430.559448,359.735565 1448.534180,359.159546 
            	C1431.288940,364.294373 1414.997314,368.351227 1397.480957,368.000000 
            z"/>
            <path fill="#FFFFFF" opacity="1.000000" stroke="none" 
            	d="
            M966.738403,449.693665 
            	C980.400208,445.755859 993.693909,441.804321 1007.571106,440.769958 
            	C1007.870667,441.286835 1008.170166,441.803680 1008.469727,442.320557 
            	C1007.243896,443.225037 1006.134705,444.641541 1004.773499,444.951538 
            	C995.353760,447.096741 985.893738,449.072693 976.420959,450.975037 
            	C971.501282,451.962982 966.529236,452.690063 961.580811,453.535034 
            	C961.420593,453.046143 961.260376,452.557281 961.100159,452.068390 
            	C962.875183,451.363770 964.650208,450.659149 966.738403,449.693665 
            z"/>
            <path fill="#FFFFFF" opacity="1.000000" stroke="none" 
            	d="
            M1616.738281,378.998749 
            	C1604.317505,378.999878 1592.367432,378.999878 1580.417236,378.999878 
            	C1604.019165,376.185303 1627.765625,374.749756 1651.545044,373.769684 
            	C1651.618652,374.224121 1651.692261,374.678589 1651.765747,375.133026 
            	C1650.635132,375.421936 1649.517822,375.882660 1648.371582,375.972534 
            	C1639.234009,376.688721 1630.088867,377.307098 1620.952271,378.034088 
            	C1619.686890,378.134766 1618.455933,378.665802 1616.738281,378.998749 
            z"/>
            <path fill="#FFFFFF" opacity="1.000000" stroke="none" 
            	d="
            M633.323853,531.303894 
            	C628.669617,531.962402 624.387756,532.360901 620.105896,532.759399 
            	C620.035767,532.344543 619.965637,531.929749 619.895447,531.514954 
            	C638.079224,524.854370 657.315796,523.018738 676.223572,519.676331 
            	C676.363586,520.313721 676.503601,520.951172 676.643616,521.588623 
            	C662.327820,524.740356 648.012085,527.892151 633.323853,531.303894 
            z"/>
            <path fill="#FFFFFF" opacity="1.000000" stroke="none" 
            	d="
            M1822.379150,405.125061 
            	C1825.851074,403.647766 1829.033936,402.413208 1832.216919,401.178650 
            	C1832.518799,401.699615 1832.820557,402.220551 1833.122437,402.741516 
            	C1826.070068,409.341919 1819.074951,416.005890 1811.902832,422.473480 
            	C1810.834229,423.437042 1808.955444,423.631683 1807.403809,423.865845 
            	C1806.791016,423.958344 1805.417480,423.043335 1805.465698,422.831360 
            	C1805.795410,421.379425 1806.059570,419.662994 1807.006958,418.652618 
            	C1809.002930,416.523956 1811.425049,414.798889 1813.636230,412.866852 
            	C1816.472900,410.388489 1819.273926,407.869324 1822.379150,405.125061 
            z"/>
            <path fill="#FFFFFF" opacity="1.000000" stroke="none" 
            	d="
            M1744.775635,486.579559 
            	C1739.371094,491.996918 1734.017944,497.466858 1728.541382,502.810394 
            	C1725.619141,505.661865 1722.570679,508.401367 1719.409912,510.984344 
            	C1717.689575,512.390259 1715.615234,513.362854 1713.018677,513.607788 
            	C1721.935425,503.039764 1730.836182,492.637848 1743.767334,486.133698 
            	C1744.482178,486.372528 1744.628906,486.476044 1744.775635,486.579559 
            z"/>
            <path fill="#FFFFFF" opacity="1.000000" stroke="none" 
            	d="
            M1557.050903,336.000000 
            	C1546.187378,334.672089 1535.790405,333.344147 1525.393555,332.016235 
            	C1525.445435,331.469391 1525.497314,330.922516 1525.549194,330.375671 
            	C1542.170288,331.539673 1558.791260,332.703674 1575.412354,333.867676 
            	C1575.443115,334.235931 1575.473877,334.604218 1575.504639,334.972473 
            	C1572.510254,335.376099 1569.526367,335.960052 1566.518677,336.132446 
            	C1563.530640,336.303711 1560.518921,336.061096 1557.050903,336.000000 
            z"/>
            <path fill="#FFFFFF" opacity="1.000000" stroke="none" 
            	d="
            M1123.062256,416.001221 
            	C1112.687378,418.021423 1102.742188,420.040405 1092.797119,422.059357 
            	C1092.635132,421.285889 1092.473145,420.512421 1092.311157,419.738922 
            	C1106.639404,416.517822 1120.967529,413.296722 1135.295654,410.075623 
            	C1135.507568,410.856262 1135.719482,411.636902 1135.931396,412.417572 
            	C1131.784912,413.611694 1127.638428,414.805847 1123.062256,416.001221 
            z"/>
            <path fill="#FFFFFF" opacity="1.000000" stroke="none" 
            	d="
            M1304.248779,320.999115 
            	C1301.292725,320.256439 1298.778931,319.514557 1296.265137,318.772644 
            	C1296.378540,318.200043 1296.491943,317.627411 1296.605347,317.054810 
            	C1316.900757,319.735077 1337.196167,322.415375 1357.491577,325.095642 
            	C1357.475220,325.353912 1357.458862,325.612152 1357.442505,325.870392 
            	C1351.527832,325.543579 1345.599609,325.365601 1339.703247,324.835663 
            	C1336.003784,324.503204 1332.372803,323.436066 1328.674438,323.060455 
            	C1320.692505,322.249878 1312.687012,321.672607 1304.248779,320.999115 
            z"/>
            <path fill="#FFFFFF" opacity="1.000000" stroke="none" 
            	d="
            M937.923950,443.998779 
            	C945.346130,442.412720 952.335999,440.827850 959.325928,439.242981 
            	C959.485596,439.959167 959.645264,440.675354 959.804993,441.391541 
            	C943.760376,445.150665 927.715759,448.909760 911.671082,452.668884 
            	C911.488159,451.923340 911.305237,451.177765 911.122253,450.432220 
            	C919.912048,448.288147 928.701782,446.144104 937.923950,443.998779 
            z"/>
            <path fill="#FFFFFF" opacity="1.000000" stroke="none" 
            	d="
            M651.163513,602.018677 
            	C641.031616,604.566467 631.319885,607.097900 621.608093,609.629333 
            	C621.459473,609.031921 621.310913,608.434509 621.162354,607.837097 
            	C640.546814,602.743530 659.931335,597.649963 679.315796,592.556396 
            	C679.459473,593.065796 679.603088,593.575256 679.746765,594.084656 
            	C670.359009,596.723938 660.971313,599.363159 651.163513,602.018677 
            z"/>
            <path fill="#FFFFFF" opacity="1.000000" stroke="none" 
            	d="
            M402.598938,677.754456 
            	C399.689240,678.321045 397.150513,678.676697 394.611755,679.032288 
            	C394.501373,678.556763 394.390991,678.081177 394.280609,677.605652 
            	C410.327667,673.597656 426.374725,669.589661 442.421783,665.581726 
            	C442.511414,665.924683 442.601013,666.267639 442.690613,666.610596 
            	C429.450378,670.254883 416.210144,673.899170 402.598938,677.754456 
            z"/>
            <path fill="#FFFFFF" opacity="1.000000" stroke="none" 
            	d="
            M1852.002197,402.999725 
            	C1851.250122,403.306793 1850.857544,403.583160 1850.464966,403.859528 
            	C1854.485229,399.038208 1855.881470,391.771301 1863.933472,390.654877 
            	C1862.198608,392.693298 1860.542236,394.805756 1858.707886,396.750397 
            	C1856.677368,398.903320 1854.484131,400.902740 1852.002197,402.999725 
            z"/>
            <path fill="#FFFFFF" opacity="1.000000" stroke="none" 
            	d="
            M1474.015503,342.000000 
            	C1468.546753,342.433960 1463.541504,342.867920 1457.764893,343.368744 
            	C1465.433472,336.922791 1473.069824,341.961548 1480.397949,341.696991 
            	C1479.422974,341.797974 1478.450195,341.939117 1477.472534,341.988800 
            	C1476.477051,342.039368 1475.477051,341.999969 1474.015503,342.000000 
            z"/>
            <path fill="#FFFFFF" opacity="1.000000" stroke="none" 
            	d="
            M1831.508667,397.967712 
            	C1834.645142,393.790771 1836.181030,393.035889 1840.260986,393.488617 
            	C1838.067993,396.515564 1837.172607,401.178070 1831.508667,397.967712 
            z"/>
            <path fill="#FFFFFF" opacity="1.000000" stroke="none" 
            	d="
            M1163.506836,490.016113 
            	C1169.527466,489.222809 1175.127563,488.437469 1180.729980,487.667908 
            	C1182.944946,487.363647 1185.164795,487.094299 1187.382446,486.809052 
            	C1187.432495,487.207886 1187.482544,487.606750 1187.532593,488.005585 
            	C1179.501465,488.997650 1171.470459,489.990570 1163.438354,490.975311 
            	C1163.288086,490.993744 1162.989868,490.913635 1162.990112,490.882019 
            	C1162.993286,490.597839 1163.047852,490.314209 1163.506836,490.016113 
            z"/>
            <path fill="#FFFFFF" opacity="1.000000" stroke="none" 
            	d="
            M1198.124268,824.101318 
            	C1199.732544,822.862244 1201.539795,821.804321 1203.347168,820.746460 
            	C1203.534546,821.090088 1203.721924,821.433716 1203.909180,821.777344 
            	C1202.364624,822.577393 1200.819946,823.377380 1199.010742,824.396362 
            	C1198.605103,824.504333 1198.464111,824.393372 1198.124268,824.101318 
            z"/>
            <path fill="#FFFFFF" opacity="1.000000" stroke="none" 
            	d="
            M1128.124268,833.101318 
            	C1129.732544,831.862366 1131.539917,830.804443 1133.347290,829.746521 
            	C1133.534546,830.090149 1133.721924,830.433777 1133.909302,830.777405 
            	C1132.364624,831.577454 1130.820068,832.377441 1129.010742,833.396362 
            	C1128.605103,833.504333 1128.464111,833.393372 1128.124268,833.101318 
            z"/>
            <path fill="#FFFFFF" opacity="1.000000" stroke="none" 
            	d="
            M1628.861450,449.592651 
            	C1627.813477,450.325043 1627.020142,450.726624 1626.226685,451.128204 
            	C1626.128052,450.621429 1626.029419,450.114624 1625.930786,449.607849 
            	C1626.992554,449.492523 1628.054321,449.377167 1628.861450,449.592651 
            z"/>
            <path fill="#FFFFFF" opacity="1.000000" stroke="none" 
            	d="
            M1685.124512,544.100891 
            	C1686.023438,543.209839 1687.121704,542.499512 1688.219971,541.789124 
            	C1688.399292,542.087585 1688.578735,542.386047 1688.758179,542.684448 
            	C1687.925659,543.185669 1687.093140,543.686829 1686.004517,544.400513 
            	C1685.606812,544.502563 1685.465454,544.392090 1685.124512,544.100891 
            z"/>
            <path fill="#FFFFFF" opacity="1.000000" stroke="none" 
            	d="
            M236.124756,724.100708 
            	C237.033249,723.203308 238.141251,722.486633 239.249252,721.769958 
            	C239.418808,722.074768 239.588379,722.379639 239.757950,722.684448 
            	C238.925705,723.185547 238.093475,723.686584 237.005035,724.400024 
            	C236.607285,724.502136 236.465759,724.391785 236.124756,724.100708 
            z"/>
            <path fill="#FFFFFF" opacity="1.000000" stroke="none" 
            	d="
            M1631.294434,445.353943 
            	C1632.188354,445.230469 1632.745239,445.408234 1633.302246,445.586029 
            	C1632.908447,446.040070 1632.514648,446.494110 1632.120850,446.948120 
            	C1631.733154,446.517151 1631.345337,446.086182 1631.294434,445.353943 
            z"/>
            <path fill="#FFFFFF" opacity="1.000000" stroke="none" 
            	d="
            M1278.875488,769.898987 
            	C1278.193604,770.444641 1277.312622,770.809265 1276.431519,771.173950 
            	C1276.327759,770.881714 1276.223999,770.589478 1276.120239,770.297180 
            	C1276.661499,770.134216 1277.202881,769.971252 1277.998291,769.597168 
            	C1278.393677,769.496765 1278.535034,769.607361 1278.875488,769.898987 
            z"/>
            <path fill="#FFFFFF" opacity="1.000000" stroke="none" 
            	d="
            M1634.823975,444.313751 
            	C1634.931519,443.851013 1635.432983,443.258179 1635.934448,442.665314 
            	C1636.151245,442.987488 1636.367920,443.309662 1636.584595,443.631836 
            	C1636.129150,443.815765 1635.673584,443.999725 1634.823975,444.313751 
            z"/>
            <path fill="#FFFFFF" opacity="1.000000" stroke="none" 
            	d="
            M1158.124512,855.101074 
            	C1158.806396,854.555420 1159.687378,854.190735 1160.568481,853.825989 
            	C1160.672241,854.118286 1160.776001,854.410583 1160.879761,854.702820 
            	C1160.338501,854.865784 1159.797241,855.028748 1159.001709,855.402832 
            	C1158.606323,855.503235 1158.464966,855.392639 1158.124512,855.101074 
            z"/>
            <path fill="#FFFFFF" opacity="1.000000" stroke="none" 
            	d="
            M1466.130371,728.094604 
            	C1466.488770,727.677124 1467.052368,727.434082 1467.616089,727.191162 
            	C1467.484497,727.526489 1467.352783,727.861816 1466.998291,728.388367 
            	C1466.628784,728.476074 1466.482056,728.372559 1466.130371,728.094604 
            z"/>
            <path fill="#FFFFFF" opacity="1.000000" stroke="none" 
            	d="
            M1469.137939,703.933838 
            	C1468.690430,703.633179 1468.527832,703.093628 1468.623657,703.042969 
            	C1468.943604,702.873718 1469.356201,702.879761 1469.733154,702.818604 
            	C1469.669312,703.185486 1469.605347,703.552246 1469.137939,703.933838 
            z"/>
            <path fill="#FFFFFF" opacity="1.000000" stroke="none" 
            	d="
            M1509.130371,673.094604 
            	C1509.488770,672.677185 1510.052490,672.434204 1510.616089,672.191162 
            	C1510.484375,672.526489 1510.352661,672.861816 1509.998291,673.388367 
            	C1509.628784,673.476074 1509.482056,673.372559 1509.130371,673.094604 
            z"/>
            <path fill="#FFFFFF" opacity="1.000000" stroke="none" 
            	d="
            M1372.869629,767.905396 
            	C1372.511230,768.322815 1371.947510,768.565796 1371.383911,768.808838 
            	C1371.515503,768.473511 1371.647217,768.138184 1372.001709,767.611633 
            	C1372.371216,767.523926 1372.517944,767.627441 1372.869629,767.905396 
            z"/>
            <path fill="#FFFFFF" opacity="1.000000" stroke="none" 
            	d="
            M1573.869629,660.905396 
            	C1573.511108,661.322754 1572.947510,661.565735 1572.383789,661.808777 
            	C1572.515503,661.473450 1572.647217,661.138123 1573.001709,660.611572 
            	C1573.371216,660.523926 1573.517944,660.627441 1573.869629,660.905396 
            z"/>
            <path fill="#FFFFFF" opacity="1.000000" stroke="none" 
            	d="
            M1691.869629,567.905396 
            	C1691.511230,568.322876 1690.947510,568.565857 1690.383911,568.808838 
            	C1690.515503,568.473511 1690.647217,568.138184 1691.001709,567.611633 
            	C1691.371216,567.523926 1691.517944,567.627441 1691.869629,567.905396 
            z"/>
            <path fill="#FFFFFF" opacity="1.000000" stroke="none" 
            	d="
            M1744.130371,486.094513 
            	C1744.488770,485.677063 1745.052490,485.434052 1745.616211,485.191101 
            	C1745.484619,485.526459 1745.352905,485.861786 1744.998413,486.388306 
            	C1744.628906,486.476044 1744.482178,486.372528 1744.130371,486.094513 
            z"/>
            <path fill="#FFFFFF" opacity="1.000000" stroke="none" 
            	d="
            M1622.531494,453.052948 
            	C1623.185181,452.892548 1623.530396,452.985870 1623.875610,453.079224 
            	C1623.788818,453.317596 1623.648315,453.769043 1623.623169,453.762726 
            	C1623.148315,453.642944 1622.687012,453.469208 1622.531494,453.052948 
            z"/>
            <path fill="#FFFFFF" opacity="1.000000" stroke="none" 
            	d="
            M1289.468750,834.946899 
            	C1288.814941,835.107361 1288.469604,835.014038 1288.124390,834.920776 
            	C1288.211182,834.682434 1288.351685,834.230957 1288.376831,834.237244 
            	C1288.851685,834.356934 1289.313110,834.530701 1289.468750,834.946899 
            z"/>
</svg>